<svg width="282" height="282" viewBox="0 0 282 282" fill="none" xmlns="http://www.w3.org/2000/svg">
<rect x="27" y="38" width="224" height="213" fill="white"/>
<path d="M49.8773 1.17648C27.4981 6.41649 8.92804 23.4465 2.38091 44.883C0.11918 52.2666 0.000141544 56.0775 0.000141544 140.87C0.000141544 236.62 -0.118897 234.357 6.54726 247.576C13.3325 260.914 27.4981 273.3 42.2588 278.778L49.4012 281.517L137.728 281.874C235.458 282.232 233.316 282.351 248.196 274.61C257.362 269.846 269.861 257.342 274.741 248.053C282.241 233.642 282.241 234.119 281.884 137.655L281.526 50.4802L278.431 42.5011C274.265 31.6638 268.908 23.6847 261.171 16.5393C253.552 9.63196 240.22 2.72466 231.054 1.05739C223.197 -0.371707 56.0673 -0.371709 49.8773 1.17648ZM239.625 80.3721C241.768 81.444 243.553 82.5158 243.791 82.6349C244.148 82.9921 206.056 149.207 186.415 182.671C179.748 193.985 176.058 198.153 169.749 201.369C165.345 203.631 154.631 204.941 153.084 203.393C152.727 203.036 157.131 194.461 162.964 184.339C208.318 105.262 221.769 82.3967 224.15 80.6103C227.483 77.9903 234.744 77.8712 239.625 80.3721ZM204.151 88.8276C206.413 89.8994 208.318 91.3285 208.318 91.8049C208.318 92.7576 194.985 116.099 159.036 178.146C151.774 190.77 145.227 201.131 144.632 201.131C143.085 201.131 132.014 195.414 129.99 193.509C128.8 192.318 134.038 182.433 155.465 145.039C170.344 119.315 183.796 96.0922 185.343 93.5912C189.629 86.684 196.176 85.0167 204.151 88.8276ZM169.035 97.5213C171.654 98.8313 173.796 100.141 173.796 100.379C173.796 101.094 123.8 187.316 122.848 188.269C122.372 188.745 118.324 186.959 113.92 184.339L105.825 179.456L108.682 174.573C137.728 123.007 152.012 99.3076 155.226 97.4022C159.988 94.544 163.202 94.544 169.035 97.5213ZM112.849 132.415L123.8 135.035L112.611 154.447C106.54 165.165 101.064 174.335 100.469 174.931C99.8735 175.526 90.9456 171.12 79.756 164.689C57.6148 151.946 49.5202 148.969 42.616 150.755C38.5686 151.827 38.0925 151.708 38.0925 149.683C38.0925 141.823 45.949 136.464 56.6625 136.94C61.9002 137.179 63.3287 136.821 65.1142 134.559C66.3046 133.13 69.3996 131.224 72.0185 130.152C78.4466 127.77 98.207 128.842 112.849 132.415Z" fill="#4FD1C5"/>
</svg>
