<svg width="1634" height="366" viewBox="0 0 1634 366" fill="none" xmlns="http://www.w3.org/2000/svg">
<path d="M467.9 177.6H572.6V210.6H467.9V177.6ZM471.2 291H432.2V81H585.5V113.7H471.2V291ZM619.616 291V130.8H657.116V291H619.616ZM638.516 104.4C631.516 104.4 625.716 102.2 621.116 97.8C616.716 93.4 614.516 88.1 614.516 81.9C614.516 75.5 616.716 70.2 621.116 66C625.716 61.6 631.516 59.4 638.516 59.4C645.516 59.4 651.216 61.5 655.616 65.7C660.216 69.7 662.516 74.8 662.516 81C662.516 87.6 660.316 93.2 655.916 97.8C651.516 102.2 645.716 104.4 638.516 104.4ZM797.234 129C810.034 129 821.434 131.5 831.434 136.5C841.634 141.5 849.634 149.2 855.434 159.6C861.234 169.8 864.134 183 864.134 199.2V291H826.634V204C826.634 189.8 823.234 179.2 816.434 172.2C809.834 165.2 800.534 161.7 788.534 161.7C779.734 161.7 771.934 163.5 765.134 167.1C758.334 170.7 753.034 176.1 749.234 183.3C745.634 190.3 743.834 199.2 743.834 210V291H706.334V130.8H742.034V174L735.734 160.8C741.334 150.6 749.434 142.8 760.034 137.4C770.834 131.8 783.234 129 797.234 129ZM1010.41 291V258.6L1008.31 251.7V195C1008.31 184 1005.01 175.5 998.405 169.5C991.805 163.3 981.805 160.2 968.405 160.2C959.405 160.2 950.505 161.6 941.705 164.4C933.105 167.2 925.805 171.1 919.805 176.1L905.105 148.8C913.705 142.2 923.905 137.3 935.705 134.1C947.705 130.7 960.105 129 972.905 129C996.105 129 1014.01 134.6 1026.61 145.8C1039.41 156.8 1045.81 173.9 1045.81 197.1V291H1010.41ZM960.005 293.1C948.005 293.1 937.505 291.1 928.505 287.1C919.505 282.9 912.505 277.2 907.505 270C902.705 262.6 900.305 254.3 900.305 245.1C900.305 236.1 902.405 228 906.605 220.8C911.005 213.6 918.105 207.9 927.905 203.7C937.705 199.5 950.705 197.4 966.905 197.4H1013.41V222.3H969.605C956.805 222.3 948.205 224.4 943.805 228.6C939.405 232.6 937.205 237.6 937.205 243.6C937.205 250.4 939.905 255.8 945.305 259.8C950.705 263.8 958.205 265.8 967.805 265.8C977.005 265.8 985.205 263.7 992.405 259.5C999.805 255.3 1005.11 249.1 1008.31 240.9L1014.61 263.4C1011.01 272.8 1004.51 280.1 995.105 285.3C985.905 290.5 974.205 293.1 960.005 293.1ZM1184.83 129C1197.63 129 1209.03 131.5 1219.03 136.5C1229.23 141.5 1237.23 149.2 1243.03 159.6C1248.83 169.8 1251.73 183 1251.73 199.2V291H1214.23V204C1214.23 189.8 1210.83 179.2 1204.03 172.2C1197.43 165.2 1188.13 161.7 1176.13 161.7C1167.33 161.7 1159.53 163.5 1152.73 167.1C1145.93 170.7 1140.63 176.1 1136.83 183.3C1133.23 190.3 1131.43 199.2 1131.43 210V291H1093.93V130.8H1129.63V174L1123.33 160.8C1128.93 150.6 1137.03 142.8 1147.63 137.4C1158.43 131.8 1170.83 129 1184.83 129ZM1373.1 293.1C1356.3 293.1 1341.3 289.6 1328.1 282.6C1315.1 275.4 1304.9 265.6 1297.5 253.2C1290.1 240.8 1286.4 226.7 1286.4 210.9C1286.4 194.9 1290.1 180.8 1297.5 168.6C1304.9 156.2 1315.1 146.5 1328.1 139.5C1341.3 132.5 1356.3 129 1373.1 129C1388.7 129 1402.4 132.2 1414.2 138.6C1426.2 144.8 1435.3 154 1441.5 166.2L1412.7 183C1407.9 175.4 1402 169.8 1395 166.2C1388.2 162.6 1380.8 160.8 1372.8 160.8C1363.6 160.8 1355.3 162.8 1347.9 166.8C1340.5 170.8 1334.7 176.6 1330.5 184.2C1326.3 191.6 1324.2 200.5 1324.2 210.9C1324.2 221.3 1326.3 230.3 1330.5 237.9C1334.7 245.3 1340.5 251 1347.9 255C1355.3 259 1363.6 261 1372.8 261C1380.8 261 1388.2 259.2 1395 255.6C1402 252 1407.9 246.4 1412.7 238.8L1441.5 255.6C1435.3 267.6 1426.2 276.9 1414.2 283.5C1402.4 289.9 1388.7 293.1 1373.1 293.1ZM1546.87 293.1C1529.07 293.1 1513.47 289.6 1500.07 282.6C1486.87 275.4 1476.57 265.6 1469.17 253.2C1461.97 240.8 1458.37 226.7 1458.37 210.9C1458.37 194.9 1461.87 180.8 1468.87 168.6C1476.07 156.2 1485.87 146.5 1498.27 139.5C1510.87 132.5 1525.17 129 1541.17 129C1556.77 129 1570.67 132.4 1582.87 139.2C1595.07 146 1604.67 155.6 1611.67 168C1618.67 180.4 1622.17 195 1622.17 211.8C1622.17 213.4 1622.07 215.2 1621.87 217.2C1621.87 219.2 1621.77 221.1 1621.57 222.9H1488.07V198H1601.77L1587.07 205.8C1587.27 196.6 1585.37 188.5 1581.37 181.5C1577.37 174.5 1571.87 169 1564.87 165C1558.07 161 1550.17 159 1541.17 159C1531.97 159 1523.87 161 1516.87 165C1510.07 169 1504.67 174.6 1500.67 181.8C1496.87 188.8 1494.97 197.1 1494.97 206.7V212.7C1494.97 222.3 1497.17 230.8 1501.57 238.2C1505.97 245.6 1512.17 251.3 1520.17 255.3C1528.17 259.3 1537.37 261.3 1547.77 261.3C1556.77 261.3 1564.87 259.9 1572.07 257.1C1579.27 254.3 1585.67 249.9 1591.27 243.9L1611.37 267C1604.17 275.4 1595.07 281.9 1584.07 286.5C1573.27 290.9 1560.87 293.1 1546.87 293.1Z" fill="#4FD1C5"/>
<rect x="27" y="80" width="224" height="213" fill="white"/>
<path d="M49.8773 43.1765C27.4981 48.4165 8.92804 65.4465 2.38091 86.883C0.11918 94.2666 0.000141544 98.0775 0.000141544 182.87C0.000141544 278.62 -0.118897 276.357 6.54726 289.576C13.3325 302.914 27.4981 315.3 42.2588 320.778L49.4012 323.517L137.728 323.874C235.458 324.232 233.316 324.351 248.196 316.61C257.362 311.846 269.861 299.342 274.741 290.053C282.241 275.642 282.241 276.119 281.884 179.655L281.526 92.4802L278.431 84.5011C274.265 73.6638 268.908 65.6847 261.171 58.5393C253.552 51.632 240.22 44.7247 231.054 43.0574C223.197 41.6283 56.0673 41.6283 49.8773 43.1765ZM239.625 122.372C241.768 123.444 243.553 124.516 243.791 124.635C244.148 124.992 206.056 191.207 186.415 224.671C179.748 235.985 176.058 240.153 169.749 243.369C165.345 245.631 154.631 246.941 153.084 245.393C152.727 245.036 157.131 236.461 162.964 226.339C208.318 147.262 221.769 124.397 224.15 122.61C227.483 119.99 234.744 119.871 239.625 122.372ZM204.151 130.828C206.413 131.899 208.318 133.329 208.318 133.805C208.318 134.758 194.985 158.099 159.036 220.146C151.774 232.77 145.227 243.131 144.632 243.131C143.085 243.131 132.014 237.414 129.99 235.509C128.8 234.318 134.038 224.433 155.465 187.039C170.344 161.315 183.796 138.092 185.343 135.591C189.629 128.684 196.176 127.017 204.151 130.828ZM169.035 139.521C171.654 140.831 173.796 142.141 173.796 142.379C173.796 143.094 123.8 229.316 122.848 230.269C122.372 230.745 118.324 228.959 113.92 226.339L105.825 221.456L108.682 216.573C137.728 165.007 152.012 141.308 155.226 139.402C159.988 136.544 163.202 136.544 169.035 139.521ZM112.849 174.415L123.8 177.035L112.611 196.447C106.54 207.165 101.064 216.335 100.469 216.931C99.8735 217.526 90.9456 213.12 79.756 206.689C57.6148 193.946 49.5202 190.969 42.616 192.755C38.5686 193.827 38.0925 193.708 38.0925 191.683C38.0925 183.823 45.949 178.464 56.6625 178.94C61.9002 179.179 63.3287 178.821 65.1142 176.559C66.3046 175.13 69.3996 173.224 72.0185 172.152C78.4466 169.77 98.207 170.842 112.849 174.415Z" fill="#4FD1C5"/>
</svg>
