<svg width="1544" height="366" viewBox="0 0 1544 366" fill="none" xmlns="http://www.w3.org/2000/svg">
<path d="M377.9 177.6H482.6V210.6H377.9V177.6ZM381.2 291H342.2V81H495.5V113.7H381.2V291ZM529.616 291V130.8H567.116V291H529.616ZM548.516 104.4C541.516 104.4 535.716 102.2 531.116 97.8C526.716 93.4 524.516 88.1 524.516 81.9C524.516 75.5 526.716 70.2 531.116 66C535.716 61.6 541.516 59.4 548.516 59.4C555.516 59.4 561.216 61.5 565.616 65.7C570.216 69.7 572.516 74.8 572.516 81C572.516 87.6 570.316 93.2 565.916 97.8C561.516 102.2 555.716 104.4 548.516 104.4ZM707.234 129C720.034 129 731.434 131.5 741.434 136.5C751.634 141.5 759.634 149.2 765.434 159.6C771.234 169.8 774.134 183 774.134 199.2V291H736.634V204C736.634 189.8 733.234 179.2 726.434 172.2C719.834 165.2 710.534 161.7 698.534 161.7C689.734 161.7 681.934 163.5 675.134 167.1C668.334 170.7 663.034 176.1 659.234 183.3C655.634 190.3 653.834 199.2 653.834 210V291H616.334V130.8H652.034V174L645.734 160.8C651.334 150.6 659.434 142.8 670.034 137.4C680.834 131.8 693.234 129 707.234 129ZM920.405 291V258.6L918.305 251.7V195C918.305 184 915.005 175.5 908.405 169.5C901.805 163.3 891.805 160.2 878.405 160.2C869.405 160.2 860.505 161.6 851.705 164.4C843.105 167.2 835.805 171.1 829.805 176.1L815.105 148.8C823.705 142.2 833.905 137.3 845.705 134.1C857.705 130.7 870.105 129 882.905 129C906.105 129 924.005 134.6 936.605 145.8C949.405 156.8 955.805 173.9 955.805 197.1V291H920.405ZM870.005 293.1C858.005 293.1 847.505 291.1 838.505 287.1C829.505 282.9 822.505 277.2 817.505 270C812.705 262.6 810.305 254.3 810.305 245.1C810.305 236.1 812.405 228 816.605 220.8C821.005 213.6 828.105 207.9 837.905 203.7C847.705 199.5 860.705 197.4 876.905 197.4H923.405V222.3H879.605C866.805 222.3 858.205 224.4 853.805 228.6C849.405 232.6 847.205 237.6 847.205 243.6C847.205 250.4 849.905 255.8 855.305 259.8C860.705 263.8 868.205 265.8 877.805 265.8C887.005 265.8 895.205 263.7 902.405 259.5C909.805 255.3 915.105 249.1 918.305 240.9L924.605 263.4C921.005 272.8 914.505 280.1 905.105 285.3C895.905 290.5 884.205 293.1 870.005 293.1ZM1094.83 129C1107.63 129 1119.03 131.5 1129.03 136.5C1139.23 141.5 1147.23 149.2 1153.03 159.6C1158.83 169.8 1161.73 183 1161.73 199.2V291H1124.23V204C1124.23 189.8 1120.83 179.2 1114.03 172.2C1107.43 165.2 1098.13 161.7 1086.13 161.7C1077.33 161.7 1069.53 163.5 1062.73 167.1C1055.93 170.7 1050.63 176.1 1046.83 183.3C1043.23 190.3 1041.43 199.2 1041.43 210V291H1003.93V130.8H1039.63V174L1033.33 160.8C1038.93 150.6 1047.03 142.8 1057.63 137.4C1068.43 131.8 1080.83 129 1094.83 129ZM1283.1 293.1C1266.3 293.1 1251.3 289.6 1238.1 282.6C1225.1 275.4 1214.9 265.6 1207.5 253.2C1200.1 240.8 1196.4 226.7 1196.4 210.9C1196.4 194.9 1200.1 180.8 1207.5 168.6C1214.9 156.2 1225.1 146.5 1238.1 139.5C1251.3 132.5 1266.3 129 1283.1 129C1298.7 129 1312.4 132.2 1324.2 138.6C1336.2 144.8 1345.3 154 1351.5 166.2L1322.7 183C1317.9 175.4 1312 169.8 1305 166.2C1298.2 162.6 1290.8 160.8 1282.8 160.8C1273.6 160.8 1265.3 162.8 1257.9 166.8C1250.5 170.8 1244.7 176.6 1240.5 184.2C1236.3 191.6 1234.2 200.5 1234.2 210.9C1234.2 221.3 1236.3 230.3 1240.5 237.9C1244.7 245.3 1250.5 251 1257.9 255C1265.3 259 1273.6 261 1282.8 261C1290.8 261 1298.2 259.2 1305 255.6C1312 252 1317.9 246.4 1322.7 238.8L1351.5 255.6C1345.3 267.6 1336.2 276.9 1324.2 283.5C1312.4 289.9 1298.7 293.1 1283.1 293.1ZM1456.87 293.1C1439.07 293.1 1423.47 289.6 1410.07 282.6C1396.87 275.4 1386.57 265.6 1379.17 253.2C1371.97 240.8 1368.37 226.7 1368.37 210.9C1368.37 194.9 1371.87 180.8 1378.87 168.6C1386.07 156.2 1395.87 146.5 1408.27 139.5C1420.87 132.5 1435.17 129 1451.17 129C1466.77 129 1480.67 132.4 1492.87 139.2C1505.07 146 1514.67 155.6 1521.67 168C1528.67 180.4 1532.17 195 1532.17 211.8C1532.17 213.4 1532.07 215.2 1531.87 217.2C1531.87 219.2 1531.77 221.1 1531.57 222.9H1398.07V198H1511.77L1497.07 205.8C1497.27 196.6 1495.37 188.5 1491.37 181.5C1487.37 174.5 1481.87 169 1474.87 165C1468.07 161 1460.17 159 1451.17 159C1441.97 159 1433.87 161 1426.87 165C1420.07 169 1414.67 174.6 1410.67 181.8C1406.87 188.8 1404.97 197.1 1404.97 206.7V212.7C1404.97 222.3 1407.17 230.8 1411.57 238.2C1415.97 245.6 1422.17 251.3 1430.17 255.3C1438.17 259.3 1447.37 261.3 1457.77 261.3C1466.77 261.3 1474.87 259.9 1482.07 257.1C1489.27 254.3 1495.67 249.9 1501.27 243.9L1521.37 267C1514.17 275.4 1505.07 281.9 1494.07 286.5C1483.27 290.9 1470.87 293.1 1456.87 293.1Z" fill="#34D399"/>
<path d="M49.8773 43.1765C27.4981 48.4165 8.92804 65.4465 2.38091 86.8829C0.11918 94.2666 0.000141544 98.0775 0.000141544 182.87C0.000141544 278.62 -0.118897 276.357 6.54726 289.576C13.3325 302.914 27.4981 315.3 42.2588 320.778L49.4012 323.517L137.728 323.874C235.458 324.232 233.316 324.351 248.196 316.61C257.362 311.846 269.861 299.342 274.741 290.053C282.241 275.642 282.241 276.119 281.884 179.655L281.526 92.4802L278.431 84.5011C274.265 73.6638 268.908 65.6847 261.171 58.5392C253.552 51.632 240.22 44.7247 231.054 43.0574C223.197 41.6283 56.0673 41.6283 49.8773 43.1765ZM239.625 122.372C241.768 123.444 243.553 124.516 243.791 124.635C244.148 124.992 206.056 191.207 186.415 224.671C179.748 235.985 176.058 240.153 169.749 243.369C165.345 245.631 154.631 246.941 153.084 245.393C152.727 245.036 157.131 236.461 162.964 226.339C208.318 147.262 221.769 124.397 224.15 122.61C227.483 119.99 234.744 119.871 239.625 122.372ZM204.151 130.828C206.413 131.899 208.318 133.329 208.318 133.805C208.318 134.758 194.985 158.099 159.036 220.146C151.774 232.77 145.227 243.131 144.632 243.131C143.085 243.131 132.014 237.414 129.99 235.509C128.8 234.318 134.038 224.433 155.465 187.039C170.344 161.315 183.796 138.092 185.343 135.591C189.629 128.684 196.176 127.017 204.151 130.828ZM169.035 139.521C171.654 140.831 173.796 142.141 173.796 142.379C173.796 143.094 123.8 229.316 122.848 230.269C122.372 230.745 118.324 228.959 113.92 226.339L105.825 221.456L108.682 216.573C137.728 165.007 152.012 141.308 155.226 139.402C159.988 136.544 163.202 136.544 169.035 139.521ZM112.849 174.415L123.8 177.035L112.611 196.447C106.54 207.165 101.064 216.335 100.469 216.931C99.8735 217.526 90.9456 213.12 79.756 206.689C57.6148 193.946 49.5202 190.969 42.616 192.755C38.5686 193.827 38.0925 193.708 38.0925 191.683C38.0925 183.823 45.949 178.464 56.6625 178.94C61.9002 179.179 63.3287 178.821 65.1143 176.559C66.3046 175.13 69.3996 173.224 72.0185 172.152C78.4466 169.77 98.207 170.842 112.849 174.415Z" fill="url(#paint0_linear_2_271)"/>
<defs>
<linearGradient id="paint0_linear_2_271" x1="9.10054e-06" y1="304.596" x2="259.019" y2="55.9587" gradientUnits="userSpaceOnUse">
<stop stop-color="#6EE7B7"/>
<stop offset="1" stop-color="#10B981"/>
</linearGradient>
</defs>
</svg>
